/* XPM */
static char *_2675_e0847d2a43ca3b446e2e13085bdb7bc09b171062d060e227bee4b135b489103d[] = {
/* columns rows colors chars-per-pixel */
"64 64 256 2 ",
"   c black",
".  c #0000A8",
"X  c #00A800",
"o  c #00A8A8",
"O  c #A80000",
"+  c #A800A8",
"@  c #A85400",
"#  c gray66",
"$  c gray33",
"%  c #5454FC",
"&  c #54FC54",
"*  c #54FCFC",
"=  c #FC5454",
"-  c #FC54FC",
";  c #FCFC54",
":  c gray99",
">  c #ECECEC",
",  c gainsboro",
"<  c #D0D0D0",
"1  c #C0C0C0",
"2  c #B4B4B4",
"3  c gray66",
"4  c #989898",
"5  c gray55",
"6  c #7C7C7C",
"7  c gray44",
"8  c #646464",
"9  c gray33",
"0  c #484848",
"q  c gray22",
"w  c #2C2C2C",
"e  c #202020",
"r  c #FC0000",
"t  c #EC0000",
"y  c #E00000",
"u  c #D40000",
"i  c #C80000",
"p  c #BC0000",
"a  c #B00000",
"s  c #A40000",
"d  c #980000",
"f  c #880000",
"g  c #7C0000",
"h  c #700000",
"j  c #640000",
"k  c #580000",
"l  c #4C0000",
"z  c #400000",
"x  c #FCD8D8",
"c  c #FCB8B8",
"v  c #FC9C9C",
"b  c #FC7C7C",
"n  c #FC5C5C",
"m  c #FC4040",
"M  c #FC2020",
"N  c #FC0000",
"B  c #FCA85C",
"V  c #FC9840",
"C  c #FC8820",
"Z  c #FC7800",
"A  c #E46C00",
"S  c #CC6000",
"D  c #B45400",
"F  c #9C4C00",
"G  c #FCFCD8",
"H  c #FCFCB8",
"J  c #FCFC9C",
"K  c #FCFC7C",
"L  c #FCF85C",
"P  c #FCF440",
"I  c #FCF420",
"U  c #FCF400",
"Y  c #E4D800",
"T  c #CCC400",
"R  c #B4AC00",
"E  c #9C9C00",
"W  c #848400",
"Q  c #706C00",
"!  c #585400",
"~  c #404000",
"^  c #D0FC5C",
"/  c #C4FC40",
"(  c #B4FC20",
")  c #A0FC00",
"_  c #90E400",
"`  c #80CC00",
"'  c #74B400",
"]  c #609C00",
"[  c #D8FCD8",
"{  c #BCFCB8",
"}  c #9CFC9C",
"|  c #80FC7C",
" . c #60FC5C",
".. c #40FC40",
"X. c #20FC20",
"o. c #00FC00",
"O. c #00FC00",
"+. c #00EC00",
"@. c #00E000",
"#. c #00D400",
"$. c #04C800",
"%. c #04BC00",
"&. c #04B000",
"*. c #04A400",
"=. c #049800",
"-. c #048800",
";. c #047C00",
":. c #047000",
">. c #046400",
",. c #045800",
"<. c #044C00",
"1. c #044000",
"2. c #D8FCFC",
"3. c #B8FCFC",
"4. c #9CFCFC",
"5. c #7CFCF8",
"6. c #5CFCFC",
"7. c #40FCFC",
"8. c #20FCFC",
"9. c #00FCFC",
"0. c #00E4E4",
"q. c #00CCCC",
"w. c #00B4B4",
"e. c #009C9C",
"r. c #008484",
"t. c #007070",
"y. c #005858",
"u. c #004040",
"i. c #5CBCFC",
"p. c #40B0FC",
"a. c #20A8FC",
"s. c #009CFC",
"d. c #008CE4",
"f. c #007CCC",
"g. c #006CB4",
"h. c #005C9C",
"j. c #D8D8FC",
"k. c #B8BCFC",
"l. c #9C9CFC",
"z. c #7C80FC",
"x. c #5C60FC",
"c. c #4040FC",
"v. c #2024FC",
"b. c #0004FC",
"n. c #0000FC",
"m. c #0000EC",
"M. c #0000E0",
"N. c #0000D4",
"B. c #0000C8",
"V. c #0000BC",
"C. c #0000B0",
"Z. c #0000A4",
"A. c #000098",
"S. c #000088",
"D. c #00007C",
"F. c #000070",
"G. c #000064",
"H. c #000058",
"J. c #00004C",
"K. c #000040",
"L. c #282828",
"P. c #FCE034",
"I. c #FCD424",
"U. c #FCCC18",
"Y. c #FCC008",
"T. c #FCB400",
"R. c #B420FC",
"E. c #A800FC",
"W. c #9800E4",
"Q. c #8000CC",
"!. c #7400B4",
"~. c #60009C",
"^. c #500084",
"/. c #440070",
"(. c #340058",
"). c #280040",
"_. c #FCD8FC",
"`. c #FCB8FC",
"'. c #FC9CFC",
"]. c #FC7CFC",
"[. c #FC5CFC",
"{. c #FC40FC",
"}. c #FC20FC",
"|. c #FC00FC",
" X c #E000E4",
".X c #C800CC",
"XX c #B400B4",
"oX c #9C009C",
"OX c #840084",
"+X c #6C0070",
"@X c #580058",
"#X c #400040",
"$X c #FCE8DC",
"%X c #FCE0D0",
"&X c #FCD8C4",
"*X c #FCD4BC",
"=X c #FCCCB0",
"-X c #FCC4A4",
";X c #FCBC9C",
":X c #FCB890",
">X c #FCB080",
",X c #FCA470",
"<X c #FC9C60",
"1X c #F0945C",
"2X c #E88C58",
"3X c #DC8854",
"4X c #D08050",
"5X c #C87C4C",
"6X c #BC7848",
"7X c #B47044",
"8X c #A86840",
"9X c #A0643C",
"0X c #9C6038",
"qX c #905C34",
"wX c #885830",
"eX c #80502C",
"rX c #744C28",
"tX c #6C4824",
"yX c #5C4020",
"uX c #543C1C",
"iX c #483818",
"pX c #403018",
"aX c #382C14",
"sX c #28200C",
"dX c #600064",
"fX c #006464",
"gX c #006060",
"hX c #00001C",
"jX c #00002C",
"kX c #302410",
"lX c #480048",
"zX c #500050",
"xX c #000034",
"cX c gray11",
"vX c #4C4C4C",
"bX c gray36",
"nX c gray25",
"mX c gray19",
"MX c #343434",
"NX c #D8F4F4",
"BX c #B8E8E8",
"VX c #9CDCDC",
"CX c #74C8C8",
"ZX c #48C0C0",
"AX c #20B4B4",
"SX c #20B0B0",
"DX c #00A4A4",
"FX c #009898",
"GX c #008C8C",
"HX c #008484",
"JX c #007C7C",
"KX c #007878",
"LX c #007474",
"PX c #007070",
"IX c #006C6C",
"UX c #980088",
/* pixels */
"~ kX~ kX~ kX~ kX~ kX~ kX~ kX~ kX~ kX~ kXmXmXmX~ mXmXmXmXmXmXmXmXmXmXmXmXmXmXmXmXmXmXmXmX~ kX~ ~ aX~ ~ ~ ~ ~ ~ kX~ kX~ kX~ kX~ kX",
"! ~ ! ! ~ ~ ~ ~ ~ ~ ~ ~ W E E E E E E E < < E R R E W ! q q 6 2 E E E E E W W W Q $ mXL.0 ! ! ~ ! Q ~ ~ ~ ~ ~ ~ ~ $ ~ ! ~ ~ ! $ ",
"! ! ! Q ! ~ ! ~ ! $ ! E < R R R R R R R # 4 W R R R 4 ! q 6 1 4 4 E 4 4 W E W E 6 8 ~ L.0 7 W W W E W W 6 6 bX0 0 0 0 Q ! Q Q ! ",
"W Q Q Q Q W 5 U 0 $ 0 W 1 E E E E E R 5 4 W 4 W E E 6 ~ q # 1 # 4 E 4 4 Q E W W 6 Q q L.0 Q R R R R R R < 1 1 E E U W W 4 4 4 Q ",
"R E E E 1 # B G q $ 0 Q 1 E W E Q W E 5 W 4 4 Q W W bX! q 4 1 4 4 4 W 4 4 W Q Q 6 Q ~ L.! Q R R R E E < < R R R R G B R E W W E ",
"5 4 E E B U G G C U U i i i i i i i i i i i i i i i i i i i i i i i i i i i i i i i i i i i i i i i i i i i U U G G U U B 4 4 4 ",
"5 4 W E S S S U F F F d d d d d d d d d d d d d d d d d d d d d d d d d d d d d d d d d d d d d d d d d d d F F F B S S S 7 E # ",
"4 5 4 W Q ! ! C e L.mXO O O O a p p i i i p a a p y M M , cX1 1 1 < , cX: n m m M t u i p O d d d O O a a p ! ! Q S 7 ! 7 7 W 4 ",
"4 5 4 W Q Q Q mXmXmX0 O O O O a p p i i i p a O p y M M , cX1 1 1 < , cX: n m m M t u u p O d d d O O a p p ! ! Q ! 4 W 5 4 4 5 ",
"5 4 4 W 5 Q $ q mXmX0 O O O O a p p i i i p a a p y M M , cX1 1 1 < , cX: n m m M t t i p O d d d O O a a p 7 ! W ! 5 Q 6 5 5 5 ",
"6 6 6 Q $ 0 q mXmXmX0 O O O O a p p i i i p a a p y M M , cX1 1 1 < , cX: n m m M t u u p O d d d O O a p p bX! W Q 6 Q 6 6 6 6 ",
"$ 0 0 0 0 mXL.L.mXaX0 O O O O a p p i i i p a a p y M M , cX1 1 1 < , cX: n m m M t u i p O d d d O O a p p q q Q Q $ bX$ 0 0 0 ",
"mXmXL.L.mXmXmXq q q $ O O O O a p p i i i p a O p y M M , cX1 1 1 < , cX: n m m M t t i p O d d d O O a a p L.L.! q q mXmXmXmXmX",
"mXmX~ mXmXmX~ kX~ q $ O O O O a p p i i i p a a p y M M , cX1 1 1 < , cX: n m m M t t i p O d d d O O a p p L.e mXL.L.L.L.L.L.L.",
"q q q ~ aXq ~ ! q q $ O O O O a p p i i i p a O p y > > , cX1 1 1 < , cX: : > ;XM t t i p O d d d O O a p p L.L.q ~ ~ q q ~ q q ",
"$ 0 0 0 ! ! ! ! ~ q 0 O O O O a p p i i i p a O < > cXcXcX< 1 1 1 < , > cXcXcX> > v t u p O d d d O O a p p mXmX0 ! Q 0 ! ! ! 0 ",
"# # # E W W W Q 7 q q O O O O a p p i i i p a 2 cXcX> > , < 1 1 nXnX, > : : > cXcX> , i p O d d d O O a p p 6 6 # # W W W E W # ",
"< < < R R R E Q 6 q q O O O O a p p i i i 1 2 cX< > > > , < 1 nXcXcX$ > : : > > > cX, < p O d d d O O a p p W W < R R R R R R < ",
"E 2 E E E R E Q 6 q mXO O O O a p p i i 1 cXcX2 < > > > , < nXcXcXcXcX< : : > > > > cXcX1 O d d d O O a p p W Q E E R E E R E 2 ",
"4 4 4 W E E E W 7 q mXO O O O a p p i < cX1 2 2 < > > > , nXcXcXcXcX1 > : : > > > > , < cX2 d d d O O a p p ! 6 W E R E E E E W ",
"E E # E E W E W 8 q mXO O O O a p p i < cX1 2 2 < > > > nXcXcXcXcX2 , > : : > > > > , < cX2 4 d d O O a p p 6 6 W W E W W W W Q ",
"# W 4 E E W E W 8 q mXO O O O a p p < cX1 1 2 2 < > > 0 cXcXcXcX# < , > : : > > > > , < 1 cX4 # d O O a a p 6 7 W # W W W E Q W ",
"E E # W E W W Q $ q mXO O O O a p 1 cX< 1 1 2 2 < > 0 cXcXcXcX# 1 < , > : : 0 0 > > , < 1 2 cX4 d O O a p p 7 7 Q E E W W E Q W ",
"E E 4 # E W W 6 $ q mXO O O O a p 1 cX< 1 1 2 2 < 0 cXcXcXcX2 1 1 < , > : 0 cXcX$ > , < 1 2 cX4 4 O O a p p 7 7 4 W E Q # W Q Q ",
"4 W 4 4 E W Q 7 0 kXmXO O O O a 1 cX< < 1 1 2 2 nXcXcXcXcXcX1 1 1 < , > 0 cXcXcXcX$ , < 1 2 4 cX4 O O a p p 6 6 W E W Q 4 W Q 4 ",
"6 6 6 6 W 5 6 Q ! ~ mXO O O O a 1 cX< < 1 1 2 2 < 0 cXcXcXcXnX1 1 < , 0 cXcXcXcXcXcX$ < 1 2 4 cX4 O O a a p bX! W W Q Q 6 Q 6 Q ",
"0 $ $ bX8 Q Q ! ~ q mX# # # # 2 1 cX< < 1 1 2 2 < > 0 cXcXcXcXnX1 < nXcXcXcXcXcXcXcXcXnX1 2 4 cX# # # 2 2 2 mX~ Q ! Q 0 0 Q $ 0 ",
"0 0 0 q q ~ aXaX~ mXq cXcXcXcXcXcXcX< < 1 1 2 2 < > > 0 cXcXcXcXnXnXcXcXcXcX, 0 cXcXcXcXnX2 4 4 cXcXcXcXcXcXcXcXL.L.L.mXmXq q 0 ",
"L.L.L.L.L.L.mXq q 0 0 # # # # 2 1 1 < < nXnX2 2 < > > > nXcXcXcXcXcXcXcXcX< > > 0 cXcXcXcXnX4 4 4 # # 2 2 2 L.L.q aXkXmXmXL.L.L.",
"0 bXbX8 6 6 Q 6 Q 6 0 # # # # 2 1 1 < nXcXcXnX2 < > > > , nXcXcXcXcXcXcX< : > > > 0 cXcXcXcXnX4 4 # # 2 2 2 ! ! ! ! ! ! ~ q q q ",
"7 4 2 E E E E E E W 0 # # # # 2 1 1 nXcXcXcXcXnX< > > > , < cXcXcXcXcXcX: : > > > > nXcXcXcXcX4 4 # # 2 2 2 Q Q W W E $ 0 0 0 $ ",
"6 E E E W E W E W W 0 # # # # 2 1 1 < nXcXcXcXcXnX> > > , nXcXcXcXcXcXcX0 : > > > > , nXcXcX4 4 4 # # 2 2 2 Q ! E E E E E 7 0 $ ",
"6 E W E W W Q W W W 0 # # # # 2 1 1 < < nXcXcXcXcX0 > > nXcXcXcXcXcXcXcXcX0 > > > > , < nX2 4 4 4 # # 2 2 2 ! Q E W E W W 7 0 $ ",
"6 E E E W Q 4 W W Q 0 cXcXcXcXcXcXcX< < 1 nXcXcXcXcX0 0 cXcXcXcX2 nXcXcXcXcX0 > > > , < 1 2 4 4 cXcXcXcXcXcX! ! W W W Q W 8 0 0 ",
"6 W E W W 4 4 E E Q 0 # # # # 2 1 cX< < 1 1 nXcXcXcXcXcXcXcXcX2 1 < nXcXcXcXcX0 > > , < 1 2 4 cX4 # # 2 2 2 ! Q Q Q W 6 6 8 0 0 ",
"6 W E E Q 5 E E W Q 0 O O O O a 1 cX< < 1 1 2 nXcXcXcXcXcXcX2 1 1 < , 0 cXcXcXcX0 > , < 1 2 4 cX4 O O a p p ! ! 4 Q Q 6 Q 8 0 0 ",
"6 W E W W W W W W Q 0 O O O O a 1 cX< < 1 1 2 2 nXcXcXcXcX1 1 1 1 < , > cXcXcXcXcX< , < 1 2 4 cX4 O O a p p ! ! 5 Q Q 6 6 Q ~ q ",
"6 Q W W E W W W W Q 0 O O O O a p 1 cX< 1 1 2 2 < 0 cXcX1 < 1 1 1 < , 0 cXcXcXcX, > , < 1 2 cX4 4 O O a p p ! ! Q Q Q Q Q ~ ~ ~ ",
"6 Q # W W Q W W E Q 0 O O O O a p 1 cX< 1 1 2 2 < > 0 1 , < 1 1 1 < nXcXcXcXcX, > > , < 1 2 cX4 d O O a p p aXkX~ iX~ ~ ~ aXq q ",
"6 1 # W W Q W Q W Q 0 O O O O a p p < cX1 1 2 2 < > > > , < 1 1 1 nXcXcXcXcX, > > > , < 1 cX4 4 d O O a p p kXsX~ Q ~ ~ q q q ~ ",
"6 W W E Q # W Q Q Q 0 O O O O a p p i < cX1 2 2 < > > > , < 1 1 nXcXcXcXcX> > > > > , < cX2 4 d d O O a p p ! ! Q Q 7 7 7 $ ~ $ ",
"Q W W W 4 4 W Q Q Q 0 O O O O a p p i < cX1 2 2 < > > > , < 1 nXcXcXcXcX> : > > > > , < cX4 d d d O O a p p W W E E W W W 6 q $ ",
"Q W W # 4 # Q Q W Q q O O O O a p p i i 1 cXcX2 < > > > , < nXcXcXcXcX, : : > > > > cXcX1 O d d d O O a p p W W R R R R W 7 mX0 ",
"6 Q # 4 4 W Q Q Q $ q O O O O a p p i i i 1 2 cX< > > > , < 1 nXcXcX< > : : > > > cX, < p O d d d O O a a p Q Q E E E E 6 8 q 0 ",
"Q W E W 4 5 Q Q 6 $ L.O O O O a p p i i i p a 2 cXcX> > , < 1 1 nX2 , > : : > cXcX> , i p O d d d O O a p p ! Q E W 4 4 6 8 ! q ",
"bXQ 4 W 5 5 Q Q Q Q mXO O O O a p p i i i p a a < > cXcXcX< 1 1 1 < , > cXcXcX> > t u i p O d d d O O a a p 7 Q W Q 4 4 6 Q ~ q ",
"$ W W W W 6 6 Q Q mXq O O O O a p p i i i p a O p y > > , cX1 1 1 < < cX: : $Xm M t u u p O d d d O O a p p 7 ! Q Q 5 5 Q Q ~ q ",
"0 7 6 W Q $ Q Q mXmXq O O O O a p p i i i p a a p y M M , cX1 1 1 < , cX: n m m M t t i p O d d d O O a a p Q Q Q 4 5 5 W Q ~ q ",
"0 0 q Q Q q q Q mXq q O O O O a p p i i i p a a p y M M , cX1 1 1 < , cX: n m m M t t u p O d d d O O a a p ! Q Q 4 5 5 W 8 ~ q ",
"$ $ 0 W W q ~ W mXmXq O O O O a p p i i i p a a p y M M , cX1 1 1 < , cX: n m m M t t i p O d d d O O a p p 8 ! W 5 5 6 6 Q ~ q ",
"0 q 0 E W Q W Q ! q q O O O O a p p i i i p a a p y M M , cX1 1 1 < , cX: n m m M t t i p O d d d O O a p p 8 ! Q 6 5 5 Q bX~ q ",
"0 7 Q R R R R 6 W 0 0 O O O O a p p i i i p a O p y M M , cX1 1 1 < , cX: n m m M t u i p O d d d O O a p p bX! Q 6 Q W Q Q ! q ",
"q # E R R E R R R E 6 O O O O a p p i i i p a a p y M M , cX1 1 1 < , cX: n m m M t t i p O d d d O O a p p ! ! Q Q Q Q Q ! mXq ",
"0 1 R R R # R R R E E O O O O a p p i i i p a a p y M M , cX1 1 1 < , cX: n m m M t t i p O d d d O O a p p ~ ~ ! Q Q ! ~ mXq 0 ",
"0 1 R R R # R E R W # O O O O a p p i i i p a a p y M M , cX1 1 1 < , cX: n m m M t t i p O d d d O O a a p kXaX~ ~ kX~ aXq ~ 0 ",
"0 # R R R # R E R W 4 O O O O a p p i i i p a a p y M M , cX1 1 1 < , cX: n m m M t u i p O d d d O O a a p L.kX~ ~ ~ ~ 0 ~ 0 ~ ",
"0 # E R E 4 E 4 R W 4 O O O O a p p i i i p a a p y M M , cX1 1 1 < , cX: n m m M t u u p O d d d O O a a p ! ~ 0 ! ~ ! ! ~ ~ ! ",
"0 # # # E # 4 # E W 4 d k h h h g d O s O f f g g p i u 2   5 5 5 # 2   < m M u y i i a d h g g g d f d O f Q ! Q Q W W Q Q ! ! ",
"0 6 5 4 W # # 4 E Q # W W ! 7 6 6 ! ! 6 6 ! ! ! ! 7 7 7 7 7 7 bX$ L.cXmX~ ! ! ! ! ! ! ! 6 bXq ! Q ! Q Q Q ! ! Q Q # # # E bX! ~ ",
"0 0 bXbXbXbXQ bXQ bXbXbXQ nXnXnXnX! ! ! ! ! ! ! mXmXmXq mXmXmXmXmXL.cXL.mX! ! ! ! 6 ! ! 7 bXmX! ! 6 ! ! 6 ! 6 ! W # W 4 W 7 q $ ",
"0 q q mXmXmX~ aX~ aXkX~ ~ aXkX~ ~ ! iXQ ~ ~ iX! ~ aXL.L.L.L.L.L.L.L.~ kX0 Q Q Q 6 6 6 W 6 bX0 Q Q 4 W W 4 W 4 Q W 4 W W Q Q q $ ",
"$ 0 q q q q q ~ ~ ~ q q q ~ ~ sXmXmX~ ~ mXmX~ ~ mXmXmXmX~ kXmXmX~ mXkXq q q ~ ~ 0 0 Q Q ! q q Q Q 7 Q Q 7 W Q Q Q Q 7 W W Q q $ ",
"$ $ $ $ 0 0 0 0 ~ 0 ~ ~ kX~ ~ q q q ! ~ q q Q ! q q q q q q q q q q ~ ~ q ~ q ~ q q q q q q ~ ~ aXkXQ Q kXaX~ ! ! q aX~ ~ aX0 $ ",
"q q q q q q q ~ q q ~ q q q q q ~ q q q q q ! q q q q q q q q q q q q ~ q ~ ~ q ~ ~ q q q q q ~ ~ q ~ ~ ~ q ~ aXaX~ ~ ~ q q q q "
};
